# xmcd CD database file
#
# Track frame offsets:
#	150
#	24954
#	41133
#	46711
#	69372
#	102959
#	112795
#	128659
#	147089
#	164523
#	189883
#
# Disc length: 2992 seconds
#
# Revision: 0
# Processed by: cddbd v1.5.2PL0 Copyright (c) Steve Scherf et al.
# Submitted via: CDex 1.70beta2
#
DISCID=830bae0b
DTITLE=franco saint de bakker - live at the ancienne belgique II
DYEAR=2006
DGENRE=Jazz
TTITLE0=Foundation (Blijweert-Caluwaerts)
TTITLE1=Slaapliedje (Elko Blijweert)
TTITLE2=Sarly's theme (Saar van de Leest)
TTITLE3=Filidé (Ray Draper)
TTITLE4=Cross (Elko Blijweert)
TTITLE5=Marcha Escocesa (Baden Powell)
TTITLE6=I See you (Subject)
TTITLE7=dialogue // bullets (Tim Van der Poel)
TTITLE8=Calvaire (Vincent Cahay)
TTITLE9=Augustus (Elko Blijweert)
TTITLE10=Big Tree (James Blood Ulmer)
EXTD=YEAR: 2006
EXTT0=
EXTT1=
EXTT2=
EXTT3=
EXTT4=
EXTT5=
EXTT6=
EXTT7=
EXTT8=
EXTT9=
EXTT10=
PLAYORDER=
